<svg width="54" height="52" viewBox="0 0 54 52" fill="none" xmlns="http://www.w3.org/2000/svg">
<path d="M23.825 28.0429C25.1692 27.3 26.2816 26.2786 27.116 24.9322C27.9503 23.5857 28.3675 22.1 28.3675 20.475C28.3675 19.2679 28.1357 18.1536 27.6722 17.0857C27.2087 16.0179 26.6061 15.1357 25.8181 14.3464C25.0301 13.5572 24.1031 12.9536 23.0834 12.5357C22.0173 12.0714 20.9512 11.8393 19.7924 11.8393H9.03872L5.33057 16.8072H19.1434C19.6533 16.8072 20.1168 16.9 20.534 17.0857C20.9512 17.2714 21.3683 17.55 21.6928 17.875C22.0173 18.2 22.249 18.5714 22.4344 19.0357C22.6198 19.4536 22.7125 19.9179 22.7125 20.4286C22.7125 20.9393 22.6198 21.4036 22.4344 21.8214C22.249 22.2393 21.9709 22.6572 21.6928 22.9822C21.3683 23.3072 20.9975 23.5857 20.534 23.7714C20.0705 23.9572 19.607 24.05 19.1434 24.05H9.03872V36.725H14.3692V29.0643H18.2628L23.3151 36.7714H29.4799L23.825 28.0429Z" fill="black"/>
<path d="M38.6112 16.7607C40.0018 16.7607 41.2996 17.0393 42.5048 17.55C43.7099 18.0607 44.776 18.8036 45.6567 19.6857C46.5374 20.6143 47.279 21.6357 47.7889 22.8429C48.2988 24.05 48.5769 25.35 48.5769 26.6965C48.5769 28.0893 48.2988 29.3893 47.7889 30.5965C47.279 31.8036 46.5374 32.8715 45.6567 33.7536C44.7297 34.6357 43.7099 35.3786 42.5048 35.8893C41.2996 36.4 40.0018 36.6786 38.6576 36.6786C37.267 36.6786 35.9691 36.4 34.764 35.8893C33.5588 35.3786 32.4928 34.6357 31.6121 33.7536C30.7314 32.825 29.9897 31.8036 29.4799 30.5965C28.97 29.3893 28.6919 28.0893 28.6919 26.7429C28.6919 25.35 28.97 24.05 29.4799 22.8429C29.9897 21.6357 30.7314 20.5679 31.6121 19.6857C32.4928 18.8036 33.5588 18.0607 34.764 17.55C35.9691 17.0393 37.2207 16.7607 38.6112 16.7607ZM38.6112 32.9643C39.3992 32.9643 40.1872 32.7786 40.8825 32.4536C41.6241 32.1286 42.2267 31.6643 42.7829 31.0607C43.3391 30.5036 43.7563 29.8072 44.0344 29.0643C44.3588 28.3215 44.4979 27.5322 44.4979 26.6965C44.4979 25.9072 44.3588 25.1179 44.0344 24.3286C43.7099 23.5857 43.2928 22.9357 42.7829 22.3322C42.2267 21.775 41.6241 21.3107 40.8825 20.9857C40.1408 20.6607 39.3992 20.475 38.6112 20.475C37.8232 20.475 37.0352 20.6607 36.34 20.9857C35.5983 21.3107 34.9958 21.775 34.4395 22.3322C33.8833 22.8893 33.4661 23.5393 33.188 24.3286C32.8636 25.0715 32.7245 25.8607 32.7245 26.6965C32.7245 27.4857 32.8636 28.275 33.188 29.0643C33.5125 29.8072 33.9297 30.5036 34.4395 31.0607C34.9958 31.6179 35.5983 32.0822 36.34 32.4536C37.0352 32.7786 37.7769 32.9643 38.6112 32.9643Z" fill="black"/>
<path d="M46.9082 52H7.09185C3.19828 52 0 48.7964 0 44.8964V7.10357C0 3.20357 3.19828 0 7.09185 0H46.9082C50.8017 0 54 3.20357 54 7.10357V44.8964C54 48.7964 50.8017 52 46.9082 52ZM7.09185 2.78571C4.7279 2.78571 2.78112 4.73571 2.78112 7.10357V44.8964C2.78112 47.2643 4.7279 49.2143 7.09185 49.2143H46.9082C49.2721 49.2143 51.2189 47.2643 51.2189 44.8964V7.10357C51.2189 4.73571 49.2721 2.78571 46.9082 2.78571H7.09185Z" fill="black"/>
</svg>
